<svg width="657" height="352" viewBox="0 0 657 352" fill="none" xmlns="http://www.w3.org/2000/svg">
<path d="M54.9662 317.17C51.5919 303.049 47.8346 289.006 44.9189 274.79C37.733 239.755 30.8968 204.647 23.9887 169.555C15.9166 128.551 7.44916 87.6132 0.294301 46.4483C-1.08544 38.5101 2.68524 29.7569 5.39756 20.8327C14.9793 19.7084 23.42 18.4374 31.7471 18.4274C134.629 18.3031 237.512 18.4318 340.394 18.2157C350.296 18.1949 358.54 21.0232 365.886 27.2849C371.473 32.048 377.427 36.1246 383.359 41.5305C398.583 125.307 409.884 210.176 431.304 292.685C431.236 315.855 422.851 324.225 400.404 324.316C398.305 324.324 396.206 324.305 394.106 324.305C321.415 324.319 248.725 324.335 176.034 324.346C144.754 324.35 113.473 324.268 82.1932 324.401C74.8376 324.433 67.9474 324.195 62.2487 318.385C60.8558 316.965 57.4476 317.522 54.9662 317.17Z" fill="#A8A3A7"/>
<path d="M103.487 0.216445C157.491 0.243029 210.837 0.103253 266.37 0.13478C269.283 0.10957 272.188 0.24677 273.572 0.216506C304.358 0.26292 334.664 -0.144322 365.438 0.47969C382.032 0.816222 395.967 9.4593 403.158 25.4138C396.28 31.5913 389.628 36.1733 383.359 41.5305C377.773 36.7657 371.473 32.048 365.886 27.2849C358.54 21.0232 350.296 18.1949 340.394 18.2157C237.512 18.4318 134.629 18.3031 31.7471 18.4274C23.42 18.4374 14.5 20.1504 5.39756 20.8327C11.0716 5.77639 25.216 1.4288 39.4015 0.571731C56.604 -0.467575 74.7082 0.230549 93.5937 0.216323C98.3637 0.217148 100.34 0.245446 103.487 0.216445Z" fill="#BEB2BD"/>
<path d="M515.641 280.087C514.608 282.842 512.929 285.121 510.245 288.105C491.94 287.725 474.46 288.118 456.989 287.209C456.955 284.991 457.239 280.254 457.148 277.387C476.494 277.291 495.419 279.235 515.641 280.087Z" fill="#A8A3A7"/>
<path fill-rule="evenodd" clip-rule="evenodd" d="M403.158 25.4138C396.272 30.9578 389.282 35.5322 383.359 41.5305C398.495 124.825 408.496 210.883 431.053 292.604C430.326 315.72 422.849 324.225 400.402 324.316C399.177 324.321 397.951 324.316 396.725 324.312C395.851 324.308 394.977 324.305 394.104 324.305L317.318 324.32C270.223 324.329 223.127 324.339 176.032 324.346C167.03 324.347 158.028 324.341 149.026 324.335C126.748 324.321 104.469 324.306 82.191 324.401C74.8354 324.433 67.9452 324.195 62.2465 318.385C60.4801 316.585 57.1317 316.889 54.9662 317.17C62.5174 339.059 77.262 350.379 99.599 350.58C119.176 350.756 138.754 350.861 158.333 350.965C166.773 351.009 175.214 351.054 183.654 351.105C183.654 351.105 200.865 351.232 220.153 351.186C290.658 352.352 361.306 351.405 431.815 351.168C435.633 351.155 457.136 349.267 456.989 349.632C478.158 352.513 497.887 347.852 517.49 343.22C526.387 341.118 535.258 339.022 544.226 337.64C560.394 335.148 576.442 331.139 592.452 327.634C597.986 326.423 603.519 325.212 609.058 324.042C609.058 324.042 631.836 319.557 639.473 317.32C651.607 313.765 655.934 303.206 656.929 291.704C654.332 288.509 650.874 285.534 647.93 282.705C617.639 282.241 587.106 281.287 556.743 281.014C542.81 280.816 528.921 280.329 515.641 280.087C513.791 282.542 512.086 284.972 510.245 288.105C514.471 289.956 518.889 291.285 523.141 293.064C537.543 294.28 554.693 295.428 569.949 296.102C569.955 296.129 569.961 296.157 569.968 296.185L583.137 298.904C580.081 299.647 577.69 300.711 575.049 301.376C569.695 302.726 565.017 303.905 560.295 304.871C556.186 305.713 552.073 306.536 547.953 307.361C536.787 309.598 525.191 311.564 513.844 314.202C513.844 314.202 518.781 321.332 521.943 325.901C521.943 325.901 517.186 334.88 512.05 335.881C500.351 332.282 500.346 332.2 501.246 317.801C490.216 317.333 476.946 317.615 464.349 317.802C461.65 315.102 459.85 310.602 458.95 307.903C457.936 300.558 457.61 294.858 456.989 287.209C456.963 284.182 457.648 280.852 457.148 277.387C453.63 261.867 449.323 248.366 446.46 234.055C441.685 210.189 436.936 186.317 432.188 162.446C424.664 124.621 417.14 86.7973 409.51 48.9945C407.878 40.9108 406.082 33.1746 403.158 25.4138Z" fill="#8B7887"/>
<path d="M583.137 298.904C576.838 302.503 567.689 303.759 560.639 305.203C545.393 308.324 530.084 310.478 513.844 314.202C509.192 315.666 504.934 317.084 501.246 317.801C489.177 318.04 477.093 317.876 464.349 317.802C461.65 315.102 459.85 311.502 458.95 307.903C480.396 302.536 501.999 297.784 523.141 293.064C541.139 293.809 566.401 290.536 583.137 298.904Z" fill="#BEB2BD"/>
<path d="M523.141 293.064C502.154 298.442 480.781 303.04 458.95 307.903C457.632 301.205 457.61 294.858 456.989 287.209C474.468 287.31 491.93 287.047 510.245 288.105C515.176 289.371 518.897 291.288 523.141 293.064Z" fill="#542F3F"/>
<path d="M501.246 317.801C501.246 317.801 509.45 315.033 513.844 314.202C521.943 314.202 521.942 322.851 521.943 325.901C521.949 334.981 514.855 335.334 512.05 335.881C500.351 336.781 496.553 325.092 501.246 317.801Z" fill="#542F3F"/>
<path d="M265.136 168.444C264.85 167.68 264.337 167.021 263.667 166.556C262.997 166.091 262.2 165.841 261.384 165.841H213.089L240.946 111.678C241.262 111.068 241.415 110.387 241.391 109.701C241.366 109.015 241.166 108.347 240.808 107.761C240.45 107.175 239.947 106.691 239.348 106.355C238.749 106.02 238.073 105.845 237.387 105.847C236.428 105.847 235.501 106.192 234.775 106.819L146.784 182.811C146.167 183.344 145.727 184.053 145.524 184.843C145.321 185.634 145.364 186.467 145.649 187.232C145.933 187.997 146.444 188.656 147.114 189.122C147.784 189.588 148.58 189.838 149.396 189.838H197.691L169.834 244C169.518 244.61 169.365 245.291 169.39 245.977C169.414 246.663 169.614 247.332 169.972 247.918C170.33 248.504 170.833 248.988 171.432 249.323C172.031 249.658 172.707 249.834 173.393 249.832C174.352 249.831 175.279 249.486 176.005 248.86L263.996 172.868C264.615 172.335 265.056 171.626 265.259 170.835C265.463 170.044 265.42 169.21 265.136 168.444Z" fill="#FFBD5D"/>
</svg>
