<svg width="589" height="751" viewBox="0 0 589 751" fill="none" xmlns="http://www.w3.org/2000/svg">
<path d="M156.134 229.376C155.11 234.398 153.651 239.4 152.636 244.83C143.843 242.162 134.749 239.076 128.454 231.716C122.653 224.932 119.136 217.314 119.136 208.33C119.136 207.944 119.426 205.791 119.635 204.812C119.881 203.088 120.437 202.761 122.135 202.376C124.043 202.376 124.512 203.517 124.633 205.421C127.715 213.914 130.635 217.376 139.635 224.376C139.635 224.376 151.654 223.747 156.63 224.876L156.134 229.376Z" fill="#EA9F8F"/>
<path d="M452.633 161.376C464.202 161.306 475.474 163.632 485.7 169.147C487.825 170.293 489.598 172.049 491.633 174.376C492.548 181.523 493.327 189.28 493.229 196.456C493.101 205.816 483.007 211.156 475.615 215.421C458.142 225.502 444.635 247.651 445.633 258.921C449.133 269.868 456.958 268.231 470.133 272.421L482.633 278.421C486.651 284.119 492.133 296.921 492.133 302.921C492.742 314.774 486.844 319.575 475.954 324.83C466.781 329.256 457.304 330.56 447.538 331.596C444.139 331.956 441.423 333.345 441.479 337.728C443.664 342.832 449.128 350.295 449.421 355.924C450.002 367.065 450.383 378.225 450.428 389.38C450.466 398.928 449.934 408.478 449.692 418.029C449.339 431.979 448.917 445.93 448.746 459.883C448.689 464.501 449.594 469.128 449.574 473.748C449.468 497.275 450.651 520.755 450.613 544.258C450.596 554.959 449.911 565.656 449.728 576.358C449.565 585.932 449.716 596.017 449.209 605.567C448.717 614.824 448.605 623.599 447.456 632.874C446.067 644.089 440.633 651.921 433.752 659.111C425.647 669.676 412.911 672.891 401.154 676.745C396.69 678.208 392.733 680.838 388.194 681.328C378.884 682.332 369.088 681.866 359.749 682.681C348.753 683.64 334.259 683.139 323.295 681.545C312.543 679.982 301.491 678.109 290.734 676.585C283.962 675.625 277.593 674.878 271.346 671.636C261.366 666.458 250.871 662.714 239.633 660.376C238.909 653.515 238.517 646.615 237.133 640.376C235.64 633.643 231.64 627.904 224.711 626C220.554 624.858 215.969 625.728 211.633 625.376C214.685 621.251 217.362 617.264 220.633 613.376C225.157 611.273 229.739 608.089 234.133 606.876C249.793 602.551 265.209 603.623 280.63 609.876C284.047 611.261 287.636 610.691 289.63 606.376C290.737 603.982 293.42 602.57 295.63 600.876C311.388 588.799 327.905 587.311 346.63 591.376C353.959 594.856 361.591 597.21 369.213 600.357C375.005 602.749 380.791 605.919 386.435 608.522C388.059 609.272 390.653 608.466 392.632 608.447C389.618 601.581 382.622 598.352 376.13 594.889C370.185 591.717 364.624 589.398 358.63 586.376C361.267 584.041 363.482 581.908 365.969 579.421C366.227 579.163 388.353 560.679 398.866 551.22C401.774 548.604 404.292 541.912 407.633 540.376L411.13 535.876C414.449 532.38 417.633 526.421 417.633 526.421C417.633 526.421 421.563 522.578 421.633 521.921C422.133 519.421 422.84 515.001 421.377 513.517C419.318 511.428 415.271 510.131 412.262 510.424C407.999 510.838 403.712 514.593 399.78 514.11C390.879 513.018 383.274 517.048 375.364 519.053C360.205 522.894 345.187 520.815 330.265 519.753C320.001 519.022 306.857 514.876 299.857 511.876C300.039 509.744 299.676 507.978 300.13 505.909C299.657 497.104 300.407 488.692 298.6 480.441C296.882 472.598 292.536 465.956 283.633 463.376C284.545 461.783 285.901 459.952 287.13 459.376C292.822 456.706 297.881 453.226 303.917 451.812C329.242 445.88 354.757 442.343 380.731 448.146C382.685 448.583 385.196 446.529 387.449 445.634C385.982 444.145 384.704 441.658 383.015 441.338C374.749 439.773 366.361 437.737 358.038 437.83C344.652 437.98 331.188 439.005 317.935 440.9C305.307 442.707 292.842 446.076 282.083 453.469C277.66 456.508 272.976 459.713 271.581 465.934C269.7 466.98 268.031 467.722 266.41 468.557C259.938 471.894 254.511 476.082 251.469 483.421C247.567 491.076 247.692 498.435 251.281 505.818C256.819 517.209 266.171 523.762 277.892 527.537C279.691 528.117 281.333 529.186 282.962 530.403C284.629 533.267 286.056 536.108 288.233 538.145C290.23 540.013 293.014 541.057 295.492 542.39C300.536 545.105 305.608 547.771 310.305 550.481C302.564 550.371 294.963 550.177 287.13 549.876C275.895 549.402 265.639 549.015 254.631 548.376C252.437 540.234 250.224 532.327 248.633 524.376C240.236 490.362 234.133 456.376 228.133 421.876C227.227 417.384 225.919 413.143 224.633 408.376C220.294 399.615 213.232 394.799 204.013 394.612C186.914 394.266 169.742 394.856 152.633 394.376C151.971 389.581 151.291 384.716 150.633 380.376C150.936 372.951 150.564 365.104 151.881 357.764C154.023 351.265 155.442 345.313 157.633 339.376C157.633 339.376 158.934 334.98 156.632 333.83C143.569 327.307 125.625 322.683 124.632 305.33C124.363 300.633 123.984 296.086 123.633 291.394C127.818 283.128 134.894 278.061 143.102 274.606C152.291 270.738 152.346 270.972 152.365 261.546C152.375 256.46 152.564 251.374 152.67 245.447C153.693 239.584 154.705 234.407 156.134 229.376L156.63 224.876C154.591 224.528 147.135 227.376 139.635 224.376C127.135 215.876 125.135 207.876 124.633 205.421C124.133 203.421 124.118 202.628 122.135 202.376C120.437 202.761 119.881 203.088 119.635 204.812C119.101 202.876 123.004 192.321 124.633 188.376C127.733 180.869 133.744 175.992 140.026 171.415C150.422 163.84 162.481 161.047 176.086 160.316C174.757 157.434 173.58 155.213 172.681 152.884C164.363 131.325 157.664 109.399 154.416 86.3605C151.777 67.6462 151.716 49.2684 156.851 31.1033C160.343 18.7468 166.739 8.74395 179.259 2.87573C190.551 -2.41688 205.031 2.48734 211.511 13.7686C214.979 19.8058 216.208 27.1762 218.133 34.3757C217.395 35.2362 216.609 35.3515 216.612 35.6992C216.676 45.9767 216.39 56.28 217.043 66.5229C217.609 75.4138 219.145 84.252 220.486 93.0781C220.826 95.323 223.633 100.376 223.633 100.376C223.633 100.376 229.118 96.1722 231.633 94.3757C237.318 93.0064 243.242 91.4534 248.981 90.3643C252.484 89.6994 256.242 89.9954 260.633 89.8757C263.895 90.5846 266.236 90.9432 268.756 91.8758C274.261 95.302 278.635 97.8757 281.135 90.8757C282.135 81.8757 271.408 76.0635 265.632 69.3304C258.97 61.5662 261.002 52.0729 259.622 43.2839C264.196 34.8887 272.022 31.8153 280.827 30.5156C298.615 27.8901 313.491 35.344 327.88 44.3434C342.687 53.6036 355.338 65.0526 364.534 80.1054C367.403 84.8006 370.763 89.1952 374.34 94.3666C374.34 83.8744 374.666 74.3981 374.265 64.9526C373.633 50.0334 371.997 35.0114 376.76 20.5219C383.281 0.682358 407.592 -6.10782 423.309 7.61375C436.36 19.0077 442.495 36.9087 446.133 53.3757C445.407 54.3506 444.512 54.6764 444.507 55.1907C444.41 65.3805 444.477 75.5725 444.32 85.7611C444.214 92.5539 443.806 99.342 443.54 106.132C443.225 114.187 443.183 122.263 442.536 130.29C441.765 139.853 440.405 149.367 439.513 158.921C439.413 160 440.994 162.332 441.632 162.33C445.362 162.324 448.904 161.713 452.633 161.376ZM195.633 76.3757C193.872 71.3443 190.631 64.1308 184.627 63.5288C176.269 62.6908 173.632 77.3304 173.632 77.3304C174.54 84.8503 174.743 93.8258 176.804 101.149C180.067 112.75 183.335 124.349 186.686 135.924C187.791 139.739 190.056 140.015 192.965 137.619C194.876 136.046 196.699 134.32 198.785 133.019C201.924 131.061 206.498 122.905 205.632 119.33C203.184 109.232 200.239 100.274 197.633 89.3757C196.948 85.3151 196.333 81.1883 195.633 76.3757ZM420.633 76.3757C419.328 69.3887 416.605 65.1985 410.132 63.8304C405.531 62.858 401.565 65.3733 399.672 68.981C398.235 71.719 398.397 74.2801 397.632 78.3304C397.939 83.3857 398.367 88.337 398.632 94.3304C398.645 103.784 398.404 114.265 398.343 123.718C398.323 126.829 399.178 128.979 402.318 130.367C407.252 132.547 412.291 135.34 417.125 137.753C418.379 138.378 419.759 138.748 421.082 139.236C425.301 127.253 422.135 111.876 422.633 98.3757C422.025 91.4143 421.264 84.1526 420.633 76.3757Z" fill="#FFD8AF"/>
<path d="M31.1728 570.48C29.298 562.633 27.2104 554.831 25.5904 546.933C21.5978 527.466 17.7995 507.96 13.9613 488.463C9.4763 465.68 4.77167 442.935 0.79633 420.063C0.029729 415.652 2.12477 410.789 3.63177 405.83C8.95555 405.206 13.6453 404.5 18.2719 404.494C75.4347 404.425 132.598 404.496 189.761 404.376C195.262 404.365 199.843 405.936 203.924 409.415C207.029 412.062 210.337 414.327 213.633 417.33C222.091 463.878 228.37 511.032 240.271 556.876C240.233 569.749 235.575 574.4 223.103 574.45C221.937 574.455 220.77 574.444 219.604 574.444C179.216 574.451 138.828 574.46 98.4398 574.466C81.06 574.469 63.68 574.423 46.3005 574.497C42.2136 574.515 38.3854 574.383 35.2191 571.155C34.4451 570.366 32.5515 570.675 31.1728 570.48ZM98.2602 490.551C98.1163 499.032 101.785 505.915 107.49 511.798C110.381 514.779 114.061 516.963 118.227 514.849C121.686 513.094 124.563 513.035 128.106 514.582C132.676 516.578 136.659 514.808 139.32 510.777C141.547 507.405 144.832 503.5 141.852 499.538C137.204 493.359 135.199 487.652 141.243 481.575C135.571 474.998 129.442 473.604 121.949 476.63C120.39 477.26 118.288 477.622 116.771 477.112C105.773 473.416 98.6104 478.178 98.2602 490.551ZM117.459 473.481C119.289 473.006 121.33 472.896 122.909 471.986C127.592 469.286 128.929 465.562 127.719 459.859C119.394 459.238 115.135 468.376 117.459 473.481Z" fill="#A8A3A7"/>
<path d="M56.1318 387.33C56.1829 387.08 56.4255 386.853 56.9243 386.276C60.5986 381.844 63.5896 377.998 67.1318 373.83C75.5321 366.687 84.6654 360.801 95.128 357.867C104.796 355.156 114.904 355.524 124.632 357.33L125.132 357.83C126.123 360.204 126.436 362.463 127.577 364.087C134.714 374.247 141.84 384.235 148.632 394.33C118.162 394.334 88.1409 394.772 58.1318 394.376C57.4581 391.915 56.8016 389.409 56.1318 387.33Z" fill="#FFD8AF"/>
<path d="M58.1318 394.376C88.137 394.39 117.777 394.313 148.632 394.33C150.25 394.316 151.864 394.393 152.633 394.376C169.738 394.402 186.577 394.175 203.675 394.522C212.895 394.709 220.637 399.511 224.633 408.376C220.812 411.808 217.115 414.354 213.633 417.33C210.529 414.683 207.029 412.062 203.924 409.415C199.843 405.936 195.262 404.365 189.761 404.376C132.598 404.496 75.4347 404.425 18.2719 404.494C13.6453 404.5 8.68922 405.451 3.63177 405.83C6.78437 397.465 14.6432 395.049 22.5249 394.573C32.0828 393.996 42.1417 394.384 52.6348 394.376C55.2851 394.376 56.3832 394.392 58.1318 394.376Z" fill="#BEB2BD"/>
<path d="M124.632 357.33C115.045 355.832 104.796 355.156 95.128 357.867C84.6654 360.801 75.9115 366.82 67.1318 373.83C60.1746 368.094 59.9258 359.725 58.3023 352.294C58.0065 350.94 57.2768 349.608 56.6318 348.33C61.961 332.953 76.1227 325.479 92.4392 330.733C106.107 335.134 117.471 344.136 124.632 357.33Z" fill="#6A4C50"/>
<path d="M452.633 161.376C452.633 161.376 445.362 162.324 441.632 162.33C440.994 162.332 439.413 160 439.513 158.921C440.405 149.367 441.765 139.853 442.536 130.29C443.183 122.263 443.225 114.187 443.54 106.132C443.806 99.342 444.214 92.5539 444.32 85.7611C444.477 75.5725 444.41 65.3805 444.507 55.1907C444.512 54.6764 445.442 53.954 446.133 53.3757C453.45 77.2649 455.063 102.011 454.24 126.809C453.867 138.04 453.205 149.721 452.633 161.376Z" fill="#EA9F8F"/>
<path d="M231.633 94.3757C229.181 96.5892 223.633 100.376 223.633 100.376C223.633 100.376 220.826 95.323 220.486 93.0781C219.145 84.252 217.609 75.4138 217.043 66.5229C216.39 56.28 216.676 45.9767 216.612 35.6992C216.609 35.3515 217.415 34.8284 218.133 34.3757C221.503 47.6587 224.304 61.2151 227.281 74.6021C228.679 80.8899 230.182 87.6688 231.633 94.3757Z" fill="#EA9F8F"/>
<path d="M268.631 91.8304C266.179 91.2562 263.439 90.5985 260.633 89.8757C253.98 79.9263 249.361 68.7586 252.632 56.3304C254.646 58.2406 257.21 60.9204 257.751 63.4121C259.648 72.1326 264.33 78.6957 271.243 84.0847C273.727 86.021 278.001 86.4469 278.001 91.4273C278.001 95.2101 271.818 91.8304 268.631 91.8304Z" fill="#EA9F8F"/>
<path d="M152.633 394.376L148.632 394.33C140.99 384.232 134.714 374.247 127.577 364.087C126.436 362.463 125.825 360.138 125.132 357.83C130.947 355.742 133.688 360.674 136.63 363.795C141.403 368.858 146.022 374.709 150.633 380.376C151.467 385.001 151.971 389.581 152.633 394.376Z" fill="#EA9F8F"/>
<path d="M56.6318 348.33C57.4969 349.331 58.0074 350.941 58.3032 352.295C59.9266 359.726 60.4901 368.031 67.1318 373.83C64.2844 378.067 60.4591 382.201 56.9243 386.276C51.9273 374.044 51.9777 361.001 56.6318 348.33Z" fill="#542F3F"/>
<path d="M268.633 91.8304C271.751 91.472 278.001 95.3106 278.001 91.4273C278.001 86.4469 273.727 86.021 271.243 84.0847C264.33 78.6957 259.648 72.1326 257.751 63.4121C257.21 60.9204 254.543 58.6412 252.632 56.3304C251.257 52.8317 257.967 45.9309 259.632 43.3304C261.311 51.9374 263.132 65.3304 265.632 69.3304C271.408 76.0635 282.147 81.7676 281.135 90.8757C278.635 97.8757 274.137 95.2565 268.633 91.8304Z" fill="#FDC5A6"/>
<path fill-rule="evenodd" clip-rule="evenodd" d="M91.7163 598.016C97.7009 595.536 103.738 595.456 109.76 595.377C114.067 595.321 118.365 595.265 122.632 594.331C124.395 593.945 126.01 593.089 127.632 592.33C127.635 590.876 123.948 589.877 122.953 589.379C119.88 589.329 102.674 589.334 102.674 589.334C99.501 590.77 96.3933 592.153 93.0277 593.059C87.7265 594.486 82.6491 595.852 79.6319 601.33C68.8254 602.49 58.433 605.513 49.7536 611.408C42.5481 616.303 35.5214 621.951 35.6322 631.83C38.3103 630.572 41.2911 629.04 43.6318 627.83C45.5426 625.318 46.4718 622.009 48.9406 620.306C59.4535 613.051 71.8546 608.771 84.6319 606.33C85.6348 603.876 86.5541 600.155 91.7163 598.016Z" fill="#EA9F8F"/>
<path fill-rule="evenodd" clip-rule="evenodd" d="M119.041 308.141C118.537 307.105 117.58 306.317 116.632 305.83C116.247 310.686 116.141 315.685 115.658 320.52C115.132 323.591 116.279 327.387 117.132 330.33C123.365 346.241 135.944 354.752 151.881 357.764C153.179 354.006 154.512 349.861 155.579 346.2C156.252 343.89 156.921 341.645 157.633 339.376C155.419 338.179 152.467 336.618 150.633 338.876C144.168 337.451 137.13 334.896 134.209 332.766C131.399 330.717 130.117 330.356 128.351 326.844C128.351 326.844 121.085 312.347 119.041 308.141Z" fill="#EA9F8F"/>
<path d="M58.1318 394.376C58.1318 394.376 54.8252 394.385 52.6348 394.376C53.3589 392.126 54.6586 389.717 56.1318 387.33C57.1087 389.248 57.4581 391.915 58.1318 394.376Z" fill="#EA9F8F"/>
<path fill-rule="evenodd" clip-rule="evenodd" d="M284.135 225.876C265.432 222.921 229.28 212.193 213.985 191.376C213.985 191.376 206.832 196.876 203.497 198.411C196.832 202.876 194.664 205.282 191.511 209.428C186.986 213.703 184.544 217.633 182.332 223.376C180.758 227.461 179.595 233.082 179.735 237.472C179.735 237.472 179.64 249.297 179.641 252.467V252.468C179.641 252.468 179.526 274.672 179.526 280.082C179.526 283.117 179.505 286.152 179.485 289.187C179.431 297.152 179.377 305.117 179.692 313.067C180.794 340.844 204.68 364.638 232.744 364.49C263.168 364.329 293.593 364.382 324.018 364.436C331.053 364.448 338.088 364.461 345.123 364.47C355.91 364.485 366.351 362.842 375.679 357.225C392.635 347.015 402.517 331.83 403.314 312.085C403.857 298.613 403.746 285.116 403.635 271.617C403.569 263.631 403.503 255.645 403.573 247.663C403.696 233.598 400.541 220.622 391.536 209.612C384.491 200.999 376.502 193.196 364.985 191.376C344.893 215.02 284.135 225.876 284.135 225.876Z" fill="#FEFBF2"/>
<path d="M213.985 191.376C215.988 190.421 219.632 193.33 220.991 195.04C229.448 200.977 238.123 207.012 247.554 211.053C259.215 216.05 271.761 217.853 284.757 217.744C302.256 217.598 319.143 215.568 334.426 206.709C341.925 202.363 356.632 191.33 356.632 191.33L364.985 191.376C345.573 215.408 303.782 225.876 284.135 225.876C267.782 225.876 227.187 220.625 213.985 191.376Z" fill="#EFCBCF"/>
<path d="M251.132 483.33C253.908 476.255 259.601 471.804 266.073 468.467C267.693 467.632 269.363 466.89 271.624 465.787C275.965 464.761 279.907 464.084 283.633 463.376C292.524 465.59 296.545 472.508 298.263 480.351C300.07 488.601 300.018 497.131 300.13 505.909C297.915 506.022 296.224 505.708 294.656 505.863C290.257 506.301 285.86 506.851 281.505 507.607C269.233 509.738 260.703 503.722 254.24 494.422C252.154 491.419 252.068 487.133 251.132 483.33Z" fill="#6A4C50"/>
<path d="M299.857 511.876C298.907 515.481 297.079 519.25 295.406 522.571C292.122 526.129 289.091 531.086 282.632 530.33C280.555 529.488 279.354 528.027 277.554 527.447C265.834 523.672 256.481 517.119 250.944 505.728C247.355 498.345 247.23 490.986 251.132 483.33C252.333 486.87 252.154 491.419 254.24 494.422C260.703 503.722 269.233 509.738 281.505 507.607C285.86 506.851 290.257 506.301 294.656 505.863C296.224 505.708 298.167 505.705 300.13 505.909C300.29 507.688 300.039 509.744 299.857 511.876Z" fill="#542F3F"/>
<path d="M422.633 98.3757C422.653 110.991 424.632 136.83 421.132 139.33C419.81 138.843 418.379 138.378 417.125 137.753C412.291 135.34 407.252 132.547 402.318 130.367C399.178 128.979 398.323 126.829 398.343 123.718C398.404 114.265 398.268 104.408 398.632 94.3304C401.518 93.8521 402.126 95.7256 404.635 95.8757C409.729 96.1806 414.824 91.6353 419.135 95.3757C420.005 96.1313 421.627 97.7761 422.633 98.3757Z" fill="#FCA199"/>
<path d="M197.633 89.3757C200.265 99.4296 203.184 109.232 205.632 119.33C206.498 122.905 201.772 131.372 198.632 133.33C196.547 134.631 195.042 135.757 193.132 137.33C190.222 139.726 187.791 139.739 186.686 135.924C183.335 124.349 179.729 112.659 176.466 101.059C176.021 99.4751 175.597 97.2662 175.632 95.3304C178.343 99.1332 181.347 98.0402 184.203 96.2484C188.391 93.6208 190.543 86.4213 197.633 89.3757Z" fill="#FCA199"/>
<path d="M220.633 613.376C221.722 607.497 228.988 603.386 236.757 601.099C250.972 596.915 265.543 599.864 279.71 597.504C297.635 589.376 312.663 580.508 333.433 582.542C339.304 583.116 345.365 584.664 351.632 585.839C350.383 587.855 349.278 591.246 346.63 591.376C328.013 587.587 311.447 588.899 295.63 600.876C293.412 602.556 290.741 604.002 289.63 606.376C287.628 610.655 284.059 611.249 280.63 609.876C265.151 603.675 249.305 603.093 233.587 607.382C229.176 608.585 225.174 611.29 220.633 613.376Z" fill="#C9787A"/>
<path d="M283.633 463.376C279.919 464.45 275.739 465.065 271.632 465.83C272.412 459.927 277.323 456.417 281.746 453.378C292.505 445.986 304.97 442.616 317.598 440.81C330.851 438.914 344.315 437.889 357.701 437.74C366.024 437.647 375.365 439.765 383.632 441.33C385.085 441.913 386.165 444.342 387.632 445.83C385.38 446.726 382.348 448.492 380.394 448.055C354.42 442.252 328.956 445.898 303.632 451.83C297.596 453.244 292.822 456.706 287.13 459.376C285.901 459.952 284.545 461.783 283.633 463.376Z" fill="#EA9F8F"/>
<path d="M422.633 98.3757C421.597 98.2379 420.005 96.1313 419.135 95.3757C414.824 91.6353 409.729 96.1806 404.635 95.8757C402.126 95.7256 401.497 94.3211 398.632 94.3304C397.969 89.4297 397.562 83.8813 397.632 78.3304C406.059 72.1082 410.584 71.8905 420.633 76.3757C421.241 83.3372 422.055 90.9525 422.633 98.3757Z" fill="#F68A8A"/>
<path d="M197.633 89.3757C190.53 86.8433 188.391 93.6208 184.203 96.2484C181.347 98.0402 178.31 99.5324 175.632 95.3304C174.607 89.5217 173.934 83.5339 173.632 77.3304C181.446 70.2377 187.219 73.9912 195.633 76.3757C196.318 80.4364 196.961 84.893 197.633 89.3757Z" fill="#F68A8A"/>
<path fill-rule="evenodd" clip-rule="evenodd" d="M482.633 278.421C493.705 283.328 502.135 293.876 502.137 305.33C504.135 319.376 499.635 325.876 497.137 327.83C495.135 330.876 476.266 339.747 474.137 339.747C471.135 340.376 457.15 340.928 448.637 341.83C447.125 351.131 461.635 364.876 462.635 371.376C464.92 375.499 466.136 378.964 466.137 380.83C466.137 380.83 503.769 571.021 459.137 652.831C432.715 710.088 355.825 698.257 304.695 695.219C296.819 694.169 286.404 691.601 276.135 688.556C257.068 682.902 238.505 675.605 237.632 673.33C237.345 667.883 238.158 665.865 238.632 663.331C238.797 662.448 239.633 660.376 239.633 660.376C250.804 662.255 261.366 666.458 271.346 671.636C277.222 674.685 284.373 675.692 290.734 676.585C296.473 677.398 302.202 678.253 307.929 679.152L307.931 679.153C312.937 679.939 318.28 680.816 323.295 681.545C334.165 683.125 348.784 683.637 359.749 682.681C364.086 682.302 368.449 682.145 372.81 682.033H372.812C377.842 681.905 383.207 681.866 388.194 681.328C392.733 680.838 396.69 678.208 401.154 676.745C409.633 672.921 425.002 670.517 433.752 659.111C439.053 652.172 446.176 643.207 447.456 632.874C448.583 623.776 448.133 613.421 449.209 605.567C449.523 599.645 449.48 593.674 449.413 587.746V587.743C449.369 583.917 449.326 580.09 449.391 576.268C449.47 571.674 449.641 567.08 449.812 562.487C450.039 556.381 450.267 550.275 450.277 544.168C450.288 537.306 449.977 530.442 449.666 523.579C449.061 510.209 448.476 499.74 448.924 486.596C449.07 482.284 449.217 477.971 449.237 473.658C449.257 469.038 448.352 464.41 448.409 459.793C448.543 448.85 448.831 437.909 449.12 426.969L449.12 426.966C449.2 423.957 449.279 420.948 449.355 417.938C449.437 414.717 449.551 411.496 449.666 408.275L449.666 408.267C449.891 401.941 450.117 395.615 450.091 389.29C450.046 378.135 449.665 366.974 449.084 355.834C448.771 349.816 440.068 343.637 441.479 337.728C441.23 333.573 443.801 331.866 447.201 331.506C456.967 330.469 466.444 329.166 475.616 324.74C486.507 319.485 491.742 314.774 492.133 302.921C492.133 298.921 486.415 283.783 482.633 278.421Z" fill="#FDC5A6"/>
<path d="M360.632 551.33C362.632 550.83 399.632 537.83 401.575 536.822C403.132 536.014 405.581 534.216 408.132 533.33C409.275 534.108 410.515 535.311 411.13 535.876C410.372 537.634 408.895 538.752 407.633 540.376C402.627 548.28 374.42 553.667 365.632 556.33C363.809 554.564 361.806 552.922 360.632 551.33Z" fill="#C9787A"/>
<path d="M420.633 76.3757C410.584 71.8905 406.059 72.1082 397.632 78.3304C397.962 75.2251 398.235 71.719 399.672 68.981C401.565 65.3733 405.531 62.858 410.132 63.8304C416.605 65.1985 419.317 68.981 420.633 76.3757Z" fill="#C9787A"/>
<path d="M195.633 76.3757C187.219 73.9912 181.446 70.2377 173.632 77.3304C173.475 75.5816 173.534 71.9953 174.135 70.3757C174.934 68.2219 179.635 62.3757 184.627 63.5288C191.018 64.1696 194.359 70.7161 195.633 76.3757Z" fill="#C9787A"/>
<path d="M287.13 549.876C286.556 551.406 285.623 552.672 284.132 554.33C273.961 554.119 264.249 554.338 254.542 553.833C254.524 552.6 254.681 549.968 254.631 548.376C265.38 548.322 275.895 549.402 287.13 549.876Z" fill="#A8A3A7"/>
<path d="M21.1318 648.33C23.2541 640.853 29.011 636.267 35.5458 631.656C38.4444 630.141 40.785 628.931 43.5684 627.684C56.7487 625.265 61.8597 627.64 66.5286 639.569C68.6023 644.867 69.8248 650.681 70.6318 656.33C65.0275 659.502 58.9507 662.668 53.8255 665.989C47.6156 670.013 34.822 668.69 29.1772 663.931C24.2234 659.755 22.6881 653.997 21.1318 648.33Z" fill="#6A4C50"/>
<path fill-rule="evenodd" clip-rule="evenodd" d="M210.611 188.092C211.705 190.435 213.985 191.376 213.985 191.376C215.689 190.563 218.848 193.523 220.991 195.04C220.835 194.931 221.14 195.145 220.991 195.04C229.448 200.977 238.123 207.012 247.554 211.053C259.215 216.05 271.761 217.853 284.757 217.744C302.256 217.598 319.143 215.568 334.426 206.709C342.218 202.193 349.385 196.655 356.632 191.33L364.985 191.376C366.14 187.465 367.072 182.723 368.132 178.83C369.254 174.71 369.558 173.43 370.632 168.33C366.635 173.876 356.282 180.081 350.635 182.876C350.635 182.876 332.635 200.376 280.757 199.324C259.248 198.887 238.443 192.167 225.584 181.396C217.635 173.376 200.066 142.376 200.066 142.376C198.632 149.325 199.286 159.354 200.996 164.846C203.472 172.804 207.047 180.459 210.611 188.092Z" fill="#EA9F8F"/>
<path fill-rule="evenodd" clip-rule="evenodd" d="M441.481 230.876C443.135 248.876 445.633 258.921 445.633 258.921C449.133 269.868 456.958 268.231 470.133 272.421C465.256 258.239 462.583 252.639 453.773 240.379C452.031 237.955 454.354 226.93 457.135 226.576C464.117 225.688 464.027 225.043 471.087 225.926C476.373 226.587 481.135 225.376 485.871 222.199C490.539 220.33 492.821 216.406 495.098 212.489C497.637 208.123 501.542 205.552 502.27 200.722L502.272 200.711L502.272 200.71C502.939 196.285 503.552 192.197 505.633 189.33C504.061 184.615 496.69 176.321 491.633 174.376C491.972 178.302 492.079 182.23 492.517 186.167C492.897 189.583 493.276 193.046 493.229 196.456C493.105 205.576 482.882 211.228 475.615 215.421C469.704 218.831 461.444 216.313 455.135 216.876C440.135 216.876 441.481 230.876 441.481 230.876Z" fill="#FDC5A6"/>
<path fill-rule="evenodd" clip-rule="evenodd" d="M202.632 136.33C203.984 139.399 205.019 142.571 206.564 145.576C213.39 158.859 226.147 167.207 238.132 175.33C244.694 179.779 251.056 182.393 258.754 184.801C290.277 194.659 320.68 186.636 350.632 176.33C353.182 173.991 376.635 157.876 370.632 168.33C366.676 175.221 357.564 179.446 350.635 182.876C350.635 182.876 340.135 194.376 301.135 199.324C276.168 200.218 245.224 198.912 225.584 181.396C221.635 178.876 200.135 144.376 200.066 142.376C200.135 140.876 201.925 136.465 202.632 136.33Z" fill="#FDC5A6"/>
<path fill-rule="evenodd" clip-rule="evenodd" d="M418.132 520.83C408.685 523.418 399.376 526.524 389.897 528.979C368.717 534.449 343.121 538.919 321.75 532.402C319.738 531.788 317.702 531.238 315.663 530.686C308.763 528.82 301.599 526.943 295.406 522.571C294.64 523.288 293.925 524.086 293.205 524.889C290.676 527.713 287.727 530.627 282.632 530.33C283.937 533.195 285.719 536.017 287.896 538.054C289.36 539.424 291.248 540.351 293.128 541.273C293.812 541.609 294.494 541.944 295.155 542.299C298.728 544.223 302.315 546.121 305.901 548.019C307.378 548.801 308.855 549.583 310.331 550.366C315.356 550.439 321.648 552.18 327.132 552.33C338.951 552.608 349.399 553.674 360.632 551.33C375.163 548.299 388.829 543.51 401.575 536.822C403.753 535.679 405.872 534.373 408.132 533.33C408.902 534.151 410.235 535.43 411.13 535.876C414.713 532.102 417.476 528.696 417.633 526.421C417.79 524.146 418.159 521.696 418.132 520.83Z" fill="#EA9F8F"/>
<path d="M21.1318 648.33C22.9013 653.69 24.2234 659.755 29.1772 663.931C34.822 668.69 47.6156 670.013 53.8255 665.989C58.9507 662.668 68.6348 656.876 70.6171 656.33C71.1348 657.376 69.5816 669.868 69.4808 672.078C69.1481 679.368 64.624 685.884 57.6365 688.33C42.118 686.283 29.762 679.477 22.299 665.447C19.5079 660.2 19.0898 654.277 21.1318 648.33Z" fill="#542F3F"/>
<path d="M98.1695 490.163C98.6104 478.178 105.773 473.416 116.771 477.112C118.288 477.622 120.39 477.26 121.949 476.63C129.442 473.604 135.571 474.998 141.243 481.575C135.199 487.652 137.204 493.359 141.852 499.538C144.832 503.5 141.547 507.405 139.32 510.777C136.659 514.808 132.676 516.578 128.106 514.582C124.563 513.035 121.686 513.094 118.227 514.849C114.061 516.963 110.381 514.779 107.49 511.798C101.785 505.915 98.1163 499.032 98.1695 490.163Z" fill="#FEFBF2"/>
<path d="M127.719 459.859C128.929 465.562 127.592 469.286 122.909 471.986C121.33 472.896 119.289 473.006 117.459 473.481C113.635 466.376 119.35 459.235 127.719 459.859Z" fill="#FEFBF2"/>
<path d="M43.5684 627.684C45.0365 625.21 46.4729 622.009 48.9417 620.305C59.4546 613.051 71.463 608.763 84.6319 606.33C86.9857 606.429 88.8151 606.584 90.6318 607.33C92.9431 608.81 95.3962 611.247 97.6357 612.33L111.135 618.876L127.636 633.33C127.636 633.33 136.247 645.038 135.156 651.876C133.832 658.317 110.044 659.676 105.791 660.087C96.4124 660.992 87.1077 658.377 77.8068 657.663C76.0289 657.526 71.4347 658.057 70.6318 656.33C69.3397 650.443 68.6023 644.867 66.5286 639.569C61.8597 627.64 56.7487 625.265 43.5684 627.684Z" fill="#FFD8AF"/>
<path fill-rule="evenodd" clip-rule="evenodd" d="M70.1318 664.33C69.4106 664.365 70.4568 659.936 70.4976 659.443C70.5522 658.785 70.6171 656.33 70.6171 656.33C72.1348 656.876 75.4405 657.481 77.8057 657.663C87.1066 658.377 96.4124 660.992 105.791 660.087C109.802 659.7 134.075 657.134 135.156 651.876C136.247 645.038 127.636 633.33 127.636 633.33C127.636 633.33 142.135 646.876 143.136 653.33C143.91 655.305 144.635 657.376 144.722 659.162C146.494 664.25 144.132 667.753 138.363 668.089C132.438 668.433 126.913 670.261 121.036 670.614C111.042 671.213 100.99 671.289 90.9725 671.316C85.8952 671.33 80.8938 670.51 75.8187 670.509C72.0528 670.509 70.635 667.191 70.1318 664.33Z" fill="#FDC5A6"/>
<path d="M95.6275 607.094C101.897 610.098 106.15 614.058 111.135 618.876C98.1348 615.876 101.693 614.292 97.6357 612.33C95.3962 611.247 92.524 608.858 90.6318 607.33C92.3607 606.914 94.2243 607.112 95.6275 607.094Z" fill="#FDC5A6"/>
<path fill-rule="evenodd" clip-rule="evenodd" d="M486.281 458.298L486.281 458.249V458.247C487.132 445.261 486.492 424.867 485.901 410.498V410.495C485.707 405.76 485.512 401.024 485.496 396.288C485.48 391.574 485.594 386.858 485.707 382.142C485.866 375.586 486.024 369.031 485.833 362.484C485.711 358.264 486.313 355.867 490.281 353.83C510.154 343.626 518.483 318.588 509.376 298.229C505.069 288.6 498.124 281.511 489.618 275.765C486.37 273.572 484.973 271.063 485.205 267.07C485.544 261.269 485.555 255.413 485.165 249.617C484.893 245.567 486.259 243.39 489.867 241.521C508.818 231.704 516.44 206.829 505.633 189.33C501.635 191.876 502.785 197.443 502.289 200.733L502.289 200.734L502.289 200.735L502.288 200.736L502.288 200.737L502.272 200.71C500.635 205.876 497.613 208.21 495.116 212.504C492.839 216.421 488.741 220.609 485.889 222.215C480.135 223.876 477.053 226.685 471.105 225.941C459.41 224.479 446.135 224.876 453.773 240.379C462.562 252.61 464.77 258.491 470.133 272.421L482.633 278.421C482.633 278.421 502.132 289.361 502.137 305.33C501.094 316.975 500.135 323.876 497.137 327.83C494.135 330.876 479.135 338.376 474.137 339.747C470.135 340.376 456.034 341.045 448.632 341.83C447.082 351.367 458.432 363.793 462.635 371.376C462.635 371.376 465.841 377.477 466.137 380.83C466.687 392.909 465.432 405.731 465.303 417.844C465.205 426.99 464.348 436.111 464.476 445.261C464.563 451.454 465.075 457.619 465.276 463.804V463.808C465.547 468.497 465.818 473.186 465.971 477.877C466.259 486.731 465.503 495.518 465.993 504.415C466.26 509.27 466.526 514.125 466.6 518.983C466.986 544.455 472.051 576.579 465.674 601.411C464.135 610.376 466.492 623.237 465.446 632.718C463.678 648.743 454.766 663.138 442.238 673.063C433.725 679.807 424.99 686.174 413.794 688.335C410.188 689.031 406.659 690.17 403.134 691.309C399.043 692.63 394.958 693.95 390.761 694.573C384.931 695.438 378.99 695.542 373.046 695.647H373.044C369.994 695.7 366.944 695.754 363.906 695.91C360.989 696.06 358.073 696.303 355.157 696.545C350.003 696.974 344.852 697.402 339.706 697.319C328.019 697.131 304.695 695.219 304.695 695.219C294.767 693.845 285.903 690.983 276.135 688.556C270.747 687.218 264.761 684.903 259.632 682.83C258.052 682.192 252.78 680.287 251.132 679.83C246.77 678.624 246.99 676.678 242.708 675.377C240.994 674.857 239.225 674.192 237.632 673.33C233.668 679.929 231.31 688.891 223.598 692.046C222.917 692.384 221.654 692.89 220.655 693.347C206.451 687.851 196.491 675.647 187.632 663.33C187.632 663.33 185.393 652.228 188.376 645.08C190.685 641.292 195.132 633.331 195.132 633.331C195.132 633.331 206.237 628.436 211.633 625.376C214.916 621 218.209 617.124 221.132 613.33C222.565 607.308 229.092 603.535 236.832 601.229C244.95 598.811 253.186 598.756 261.395 598.701C267.506 598.66 273.687 598.519 279.71 597.504C282.437 597.044 284.914 595.778 287.488 594.406C301.162 587.117 317.805 580.993 333.433 582.542C337.423 582.937 341.368 583.777 345.455 584.648L345.458 584.648C347.361 585.054 349.648 585.463 351.632 585.839C350.471 585.853 347.191 590.245 346.63 591.376C346.609 592.064 367.589 599.559 369.213 600.357C374.803 603.152 380.44 605.829 386.115 608.447C388.074 609.351 390.559 608.467 392.632 608.447C392.632 601.83 382.43 598.25 376.13 594.889C370.095 591.669 364.841 589.236 358.63 586.376C361.271 584.085 365.969 579.421 365.969 579.421C376.838 570.267 388.029 560.971 398.866 551.22C402.311 548.121 404.789 544.012 407.633 540.376C393.818 546.281 379.878 551.526 365.632 556.33C364.43 562.545 362.675 568.587 355.933 570.563C355.933 570.563 344.704 573.1 339.034 574.298C335.956 574.948 332.882 575.62 329.808 576.294C320.912 578.241 312.014 580.189 303.031 581.573C298.05 582.34 293.123 583.505 288.181 584.672L288.177 584.673C277.285 587.247 266.304 590.117 254.542 588.516C249.787 588.387 245.256 589.353 240.555 589.369C204.915 589.489 169.275 589.413 133.635 589.446C133.528 594.811 133.331 600.073 133.331 605.44C113.398 605.44 114.042 605.447 113.812 605.436C107.957 605.536 101.713 606.36 95.6275 607.094C101.307 611.089 106.19 613.653 111.135 618.876L127.636 633.33C127.636 633.33 142.135 647.876 143.136 653.33C143.877 655.219 144.158 657.22 144.722 659.162C146.135 664.376 144.132 667.753 138.363 668.089C132.489 668.43 126.864 670.264 121.036 670.614C105.864 671.523 90.9312 670.511 75.8187 670.509C71.7075 670.509 72.2577 663.769 70.1318 664.33C69.5164 666.971 69.6094 669.259 69.4808 672.078C69.1481 679.368 64.5668 685.536 57.6318 688.33C59.6028 690.22 61.2936 693.163 64.4195 693.348C72.0262 693.799 77.0143 697.482 80.4351 703.91C90.6047 723.012 127.372 722.288 142.905 713.26C148.686 709.901 153.675 705.451 159.035 701.497C161.504 704.948 163.669 708.62 166.49 711.808C181.174 728.404 199.641 733.772 220.93 728.793C227.962 727.148 235.166 724.858 240.153 718.845L240.154 718.846L240.25 718.78C242.276 717.376 244.859 715.586 246.543 713.954L246.648 714.016C248.017 714.517 249.353 715.043 250.667 715.559L250.671 715.561L250.678 715.564L250.679 715.564L250.681 715.565C254.622 717.116 258.369 718.59 262.243 719.099C269.543 720.057 275.75 721.566 277.685 729.837C280.318 741.102 300.469 748.43 310.084 749.83C325.71 752.106 339.691 748.708 351.34 737.67C354.314 734.852 356.842 731.565 361.142 726.733C365.316 735.529 372.033 741.974 381.526 744.901C393.553 748.61 405.921 749.016 417.953 743.482C430.949 737.505 440.203 728.743 442.401 713.91C442.576 712.729 443.84 711.209 444.966 710.75C454.553 706.842 462.487 700.674 469.273 693.031C477.342 683.942 482.69 673.374 485.382 661.494C495.007 661.825 505.364 667.497 512.792 657.068C514.668 654.434 516.136 653.937 518.835 655.553C528.211 661.168 538.053 661.76 548.453 658.574C559.565 655.17 569.001 643.363 568.249 631.787C567.911 626.597 565.416 621.85 563.92 616.94C563.94 616.921 563.965 616.899 563.994 616.875C572.123 609.855 579.421 601.158 582.475 590.676C586.872 578.546 590.046 566.897 587.155 553.846L578.174 580.876L567.358 598.063L541.573 615.48L518.562 614.465L506.635 608.83L501.635 603.83L497.136 570.33L496.154 539.346C493.442 541.315 490.942 543.335 488.571 545.263C488.552 545.213 488.53 545.174 488.503 545.147C488.132 516.33 486.281 487.489 486.281 458.298Z" fill="#EA9F8F"/>
<path d="M133.635 589.446C133.635 594.506 133.331 600.61 133.331 605.44C127.332 605.44 120.797 605.425 113.812 605.436C107.529 605.904 101.713 606.36 95.6275 607.094C93.9552 607.389 92.5521 607.407 90.7297 607.472C88.5874 607.125 86.7466 606.734 84.6319 606.33C85.7137 602.241 87.9771 599.566 91.7163 598.016C101.98 593.762 117.632 595.331 122.632 594.331C124.206 593.986 126.135 593.031 127.632 592.33C127.135 590.876 124.073 590.499 122.953 589.379C124.953 589.379 132.635 589.446 133.635 589.446Z" fill="#C9787A"/>
<path fill-rule="evenodd" clip-rule="evenodd" d="M157.633 339.376C161.456 337.049 158.934 334.98 156.632 333.83C143.988 327.516 125.581 321.911 124.632 305.33C124.363 300.633 124.275 295.834 123.632 291.33C121.287 296.129 118.685 301.22 116.632 305.83C117.42 306.64 118.488 307.003 119.041 308.141C121.542 313.287 126.311 324.07 126.311 324.07C126.305 324.074 128.354 326.445 128.351 326.844C130.117 330.356 131.399 330.717 134.209 332.766C137.13 334.896 144.168 337.451 150.633 338.876C152.467 336.618 155.419 338.179 157.633 339.376Z" fill="#FDC5A6"/>
<path fill-rule="evenodd" clip-rule="evenodd" d="M497.136 570.33C499.088 572.891 501.721 575.002 502.936 578.067C506.056 585.941 510.221 593.665 516.898 598.17C522.072 601.661 528.828 602.011 534.935 601.522C540.569 600.823 547.326 599.192 553.162 595.725L553.519 595.513C559.906 591.723 564.867 585.938 567.522 578.569C568.208 576.667 569.563 574.901 570.943 573.372C575.836 567.949 576.647 561.087 577.186 554.404C577.428 551.392 577.082 548.338 576.734 545.277C576.5 543.215 576.265 541.15 576.21 539.092C576.178 537.904 577.663 536.675 578.808 535.466C580.857 538.237 582.695 541.504 584.136 544.83C584.121 544.858 584.106 544.886 584.091 544.913C585.293 547.738 586.207 550.433 587.135 553.83C586.135 563.876 582.135 572.876 578.174 580.876C576.135 586.376 570.169 592.734 567.358 598.063C566.135 600.83 548.116 614.331 541.573 615.48C533.889 616.83 526.567 616.29 518.562 614.465C513.06 613.211 509.776 611.967 506.635 608.83C505.101 607.298 503.426 605.124 501.635 603.83C493.807 598.173 491.158 577.19 497.136 570.33Z" fill="#FDC5A6"/>
<path d="M383.451 247.605C386.134 251.107 389.211 254.2 390.704 257.929C392.089 261.387 392.586 265.653 391.993 269.325C391.397 273.018 388.335 275.839 384.03 275.42C379.94 275.023 377.632 272.352 376.85 268.31C375.537 261.522 370.575 258.238 364.543 256.747C358.773 255.32 353.318 257.218 349.991 262.096C347.858 265.224 347.302 269.427 346.053 273.521C343.603 276.967 340.952 280.018 336.501 278.035C332.143 276.094 331.012 272.229 331.195 267.708C331.708 255.076 343.054 242.876 356.335 240.351C366.517 238.415 375.319 240.945 383.451 247.605Z" fill="#542F3F"/>
<path d="M256.124 286.33C249.082 283.548 245.591 278.514 246.448 272.932C246.801 270.634 248.985 268.117 251.032 266.719C253.058 265.336 255.055 266.189 256.283 269.141C259.15 276.032 264.659 277.126 268.814 271.928C270.537 269.772 270.635 267.667 270.635 267.667C266.301 265.871 261.659 260.496 262.805 256.378C263.971 252.191 267.973 251.925 271.912 252.22C274.998 252.452 278.127 252.17 281.234 252.046C285.133 251.89 289.149 251.532 290.541 256.474C291.661 260.45 289.468 264.445 285.156 266.546C284.285 266.97 283.339 267.242 282.207 267.667C283.661 271.875 286.106 274.762 290.502 274.255C292.489 274.026 295.175 272.422 295.96 270.714C297.712 266.905 299.646 264.237 304.171 265.626C308.136 266.843 310.181 271.82 308.135 276.009C306.635 279.376 303.635 281.376 302.135 282.376L295.96 284.154C295.088 284.154 281.517 286.386 276.557 278.618C270.993 285.208 263.489 286.309 256.124 286.33Z" fill="#542F3F"/>
<path d="M302.632 295.33C305.129 308.047 301.156 322.169 291.172 328.827C282.153 334.841 267.083 333.92 261.132 319.33C261.635 313.876 267.982 300.259 275.632 297.33C281.533 296.981 287.235 296.819 292.721 296.411C295.956 296.171 299.404 295.67 302.632 295.33Z" fill="#FCA199"/>
<path d="M192.747 262.071C188.397 262.3 185.271 260.353 185.92 254.786C187.771 242.243 202.296 237.909 212.201 239.766C225.061 242.177 234.171 249.939 237.741 263.025C238.417 265.505 238.635 266.052 238.635 270.714C238.635 275.376 235.635 279.376 230.135 279.376C224.635 279.376 222.086 271.242 221.314 267.479C220.626 265.671 220.033 264.548 219.44 263.425C215.756 257.391 209.022 254.74 202.256 257.15C199.447 258.799 196.021 261.899 192.747 262.071Z" fill="#542F3F"/>
<path d="M365.135 287.33C374.381 287.33 380.635 295.747 380.635 302.641C380.635 313.1 372.485 319.33 365.135 319.33C357.698 319.33 348.135 312.418 348.135 302.641C348.135 291.086 356.859 287.33 365.135 287.33Z" fill="#FCA199"/>
<path d="M206.635 320.376C195.635 320.376 189.635 312.067 189.635 304.376C189.635 294.33 198.635 288.376 206.635 288.376C214.635 288.376 222.135 295.411 222.135 304.376C222.135 312.067 217.635 320.376 206.635 320.376Z" fill="#FCA199"/>
<path d="M275.632 297.33C282.463 290.419 292.452 289.518 302.135 288.376C302.135 288.376 302.538 292.852 302.632 295.33C299.369 296.11 295.956 296.171 292.721 296.411C287.235 296.819 281.533 296.981 275.632 297.33Z" fill="#F68A8A"/>
<path fill-rule="evenodd" clip-rule="evenodd" d="M275.632 297.33C284.135 289.876 293.116 289.758 302.135 288.376C302.136 287.635 302.138 284.157 302.135 282.376L295.96 284.154C295.088 284.154 281.517 286.386 276.557 278.618C271.261 284.89 263.804 285.831 256.124 286.33C256.452 294.055 256.721 301.064 257.132 308.33C257.132 309.33 260.509 318.026 261.132 319.33C262.76 311.129 269.278 299.763 275.632 297.33Z" fill="#C9787A"/>
<path fill-rule="evenodd" clip-rule="evenodd" d="M224.633 408.376C220.807 411.456 216.923 413.998 213.633 417.33C222.042 463.61 227.599 511.425 240.132 556.83C239.728 569.674 235.574 574.399 223.102 574.45C222.421 574.453 221.74 574.45 221.059 574.448C220.573 574.446 220.088 574.444 219.602 574.444L176.939 574.452C150.772 574.457 124.605 574.462 98.4386 574.466C93.437 574.467 88.4355 574.464 83.4339 574.461C71.0556 574.452 58.6773 574.444 46.2993 574.497C42.2124 574.515 38.3841 574.383 35.2178 571.155C34.2364 570.154 32.376 570.323 31.1728 570.48C35.3684 582.641 43.5607 588.931 55.9714 589.043C66.8489 589.141 77.7267 589.198 88.6046 589.256C93.2943 589.281 97.984 589.306 102.674 589.334C102.674 589.334 112.236 589.405 122.953 589.379C162.126 590.027 201.379 589.501 240.555 589.369C242.677 589.362 254.624 588.313 254.542 588.516C266.304 590.117 277.266 587.527 288.157 584.953C293.101 583.785 298.03 582.621 303.013 581.853C311.996 580.469 320.912 578.241 329.808 576.294C332.882 575.62 335.956 574.948 339.034 574.298C339.034 574.298 351.69 571.806 355.933 570.563C362.675 568.587 365.079 562.721 365.632 556.33C364.189 554.555 362.267 552.902 360.632 551.33C343.802 551.072 326.837 550.542 309.967 550.391C302.226 550.281 294.509 550.01 287.13 549.876C286.102 551.24 285.155 552.59 284.132 554.33C286.48 555.359 288.935 556.097 291.297 557.086C299.299 557.761 308.828 558.399 317.304 558.774C317.308 558.789 317.311 558.805 317.315 558.82L324.632 560.33C322.934 560.743 321.605 561.335 320.138 561.704C317.163 562.454 314.564 563.109 311.941 563.646C309.658 564.114 307.372 564.571 305.083 565.03C298.879 566.272 292.436 567.365 286.132 568.83C286.132 568.83 288.875 572.792 290.632 575.33C290.632 575.33 287.988 580.319 285.135 580.876C278.635 578.876 278.632 578.83 279.132 570.83C273.004 570.57 265.631 570.727 258.632 570.83C257.132 569.33 256.132 566.83 255.632 565.33C255.069 561.25 254.887 558.082 254.542 553.833C254.528 552.151 254.908 550.301 254.631 548.376C252.676 539.753 250.283 532.251 248.692 524.3C246.039 511.039 243.401 497.776 240.762 484.512C236.582 463.497 232.402 442.481 228.162 421.477C227.256 416.986 226.258 412.688 224.633 408.376Z" fill="#8B7887"/>
<path d="M324.632 560.33C321.132 562.33 316.049 563.028 312.132 563.83C303.661 565.565 295.155 566.761 286.132 568.83C283.547 569.644 281.181 570.432 279.132 570.83C272.426 570.963 265.712 570.872 258.632 570.83C257.132 569.33 256.132 567.33 255.632 565.33C267.548 562.349 279.55 559.708 291.297 557.086C301.297 557.5 315.333 555.681 324.632 560.33Z" fill="#BEB2BD"/>
<path d="M291.297 557.086C279.637 560.074 267.761 562.629 255.632 565.33C254.9 561.609 254.887 558.082 254.542 553.833C264.254 553.889 273.956 553.743 284.132 554.33C286.872 555.034 288.939 556.099 291.297 557.086Z" fill="#542F3F"/>
<path fill-rule="evenodd" clip-rule="evenodd" d="M418.132 520.83C417.904 521.967 417.633 526.421 417.633 526.421C420.633 525.921 421.563 522.578 421.633 521.921C421.562 522.458 421.685 521.435 421.633 521.921C422.633 520.421 422.589 514.746 421.377 513.517C419.318 511.428 415.271 510.131 412.262 510.424C407.999 510.838 403.712 514.593 399.78 514.11C393.345 513.321 387.589 515.163 381.904 517.027C379.725 517.741 377.555 518.497 375.364 519.053C360.205 522.894 345.187 520.815 330.265 519.753C323.171 519.248 316.192 517.128 309.21 515.053C306.09 514.125 302.987 512.663 299.857 511.876C298.51 515.496 296.661 518.917 295.406 522.571C301.599 526.943 308.763 528.82 315.663 530.686C317.702 531.238 319.738 531.788 321.75 532.402C343.121 538.919 368.717 534.449 389.897 528.979C399.163 526.587 413.135 522.376 418.132 520.83Z" fill="#FDC5A6"/>
<path d="M279.132 570.83C279.132 570.83 283.69 569.292 286.132 568.83C290.632 568.83 290.631 573.636 290.632 575.33C290.635 580.376 286.693 580.572 285.135 580.876C278.635 581.376 276.525 574.881 279.132 570.83Z" fill="#542F3F"/>
<path d="M496.136 539.33C502.781 533.994 515.846 537.835 520.701 542.381C522.817 544.362 524.447 546.502 527.136 549.33C531.716 534.445 540.872 525.639 556.087 524.442C565.645 523.69 573.275 527.652 578.808 535.466C577.766 536.986 576.178 537.904 576.21 539.092C576.347 544.207 577.592 549.363 577.186 554.404C576.647 561.087 575.836 567.949 570.943 573.372C569.563 574.901 568.208 576.667 567.522 578.569C564.867 585.938 559.906 591.723 553.519 595.513C543.444 601.493 527.588 605.383 516.898 598.17C510.221 593.665 506.056 585.941 502.936 578.067C501.803 575.209 499.066 573.315 497.136 570.33C496.841 559.842 496.436 549.373 496.136 539.33Z" fill="#FFD8AF"/>
<path d="M195.132 633.331C198.635 630.876 206.366 628.105 211.633 625.376C216.329 625.146 220.554 624.858 224.711 626C231.64 627.904 235.676 633.596 237.17 640.329C238.554 646.568 238.909 653.515 239.633 660.376C239.633 660.376 239.25 662.447 238.632 663.331C235.653 663.942 232.885 664 230.619 665.108C227.777 666.499 225.467 669.578 222.58 670.137C218.033 671.016 213.141 670.869 208.494 670.323C198.518 669.152 189.657 659.005 189.299 649.104C189.254 647.87 188.71 646.671 188.376 645.08C190.851 641.021 192.135 635.876 195.132 633.331Z" fill="#6A4C50"/>
<path d="M237.632 673.33C235.632 683.197 228.043 692.161 220.655 693.347C218.513 692.736 216.827 692.218 214.516 691.207C201.983 684.746 193.037 676.281 187.632 663.33C186.077 657.071 185.878 650.671 188.376 645.08C188.376 645.08 194.804 668.716 208.494 670.323C213.141 670.869 218.033 671.016 222.58 670.137C225.467 669.578 227.777 666.499 230.619 665.108C232.885 664 235.872 663.675 238.632 663.331C239.498 666.191 238.199 670.535 237.632 673.33Z" fill="#542F3F"/>
<path fill-rule="evenodd" clip-rule="evenodd" d="M152.715 199.396C146.091 199.049 141.097 204.137 141.559 210.761L146.371 279.719C146.833 286.342 152.577 291.992 159.2 292.339L241.045 296.684C252.038 297.26 253.26 281.336 256.527 269.184C260.023 256.184 261.113 244.707 277.005 244.684C293.335 244.66 297.983 274.183 297.983 274.183C297.983 274.183 302.979 300.681 318.604 300.681L402.053 305.048L411.849 300.598C411.849 300.598 412.939 300.761 414.763 300.947C416.199 301.094 418.09 301.256 420.263 301.366C430.76 301.898 447.832 301.214 451.907 291.727C455.515 283.328 457.064 275.862 458.287 269.966C460.112 261.167 461.211 255.868 467.351 256.189C477.866 256.739 484.785 271.18 484.785 271.18C484.785 271.18 484.974 276.178 491.777 278.18C506.157 282.41 509.529 252.97 499.494 245.924C479.614 231.964 438.9 223.77 420.263 220.609C418.114 220.244 416.259 219.947 414.763 219.715C412.085 219.3 410.557 219.096 410.557 219.096L395.568 212.105L152.715 199.396ZM151.46 224.223C150.998 217.6 155.993 212.512 162.616 212.858L232.973 216.54C239.597 216.887 245.341 222.537 245.803 229.161L245.805 273.184C246.267 279.808 244.339 284.846 237.715 284.499L167.358 280.817C160.735 280.47 154.991 274.82 154.528 268.197L151.46 224.223ZM317.522 220.965C310.899 220.619 305.904 225.707 306.366 232.33L309.435 276.303C309.897 282.927 315.641 288.577 322.264 288.924L392.622 292.606C399.245 292.952 404.24 287.864 403.778 281.241L400.709 237.267C400.247 230.644 394.503 224.994 387.88 224.647L317.522 220.965Z" fill="#B8B8B8"/>
<path d="M162.616 212.858C155.993 212.512 150.998 217.6 151.46 224.223L154.528 268.197C154.991 274.82 160.735 280.47 167.358 280.817L237.715 284.499C244.339 284.846 246.267 279.808 245.805 273.184L245.803 229.161C245.341 222.537 239.597 216.887 232.973 216.54L162.616 212.858Z" fill="#FF0000" fill-opacity="0.6"/>
<path d="M306.366 232.33C305.904 225.707 310.899 220.619 317.522 220.965L387.88 224.647C394.503 224.994 400.247 230.644 400.709 237.267L403.778 281.241C404.24 287.864 399.245 292.952 392.622 292.606L322.264 288.924C315.641 288.577 309.897 282.927 309.435 276.303L306.366 232.33Z" fill="#0000FF" fill-opacity="0.6"/>
<path d="M421.305 301.369C420.967 301.355 420.635 301.34 420.311 301.323C418.139 301.214 416.248 301.051 414.811 300.904L413.795 300.795L413.289 300.735L410.434 218.973L410.605 219.053C410.605 219.053 412.133 219.257 414.811 219.672C415.861 219.834 417.09 220.029 418.473 220.258L421.305 301.369Z" fill="#FEFBF2"/>
</svg>
